<?xml version="1.0" standalone="no"?>
<!DOCTYPE svg PUBLIC "-//W3C//DTD SVG 20010904//EN"
 "http://www.w3.org/TR/2001/REC-SVG-20010904/DTD/svg10.dtd">
<svg version="1.0" xmlns="http://www.w3.org/2000/svg"
 width="1280.000000pt" height="400.000000pt" viewBox="0 0 1280.000000 400.000000"
 preserveAspectRatio="xMidYMid meet">

<g transform="translate(0.000000,400.000000) scale(0.100000,-0.100000)"
fill="#000000" stroke="none">
<path d="M1786 3989 c-201 -21 -371 -133 -502 -330 -40 -61 -194 -354 -398
-761 -456 -909 -766 -1566 -832 -1763 -158 -475 99 -959 584 -1097 107 -31
300 -31 422 -1 233 59 445 190 684 425 l110 109 115 -114 c237 -234 429 -354
669 -419 105 -28 318 -31 412 -5 336 91 564 335 636 677 41 196 16 344 -101
610 -268 604 -1018 2124 -1153 2335 -66 104 -191 222 -282 268 -120 59 -231
79 -364 66z m234 -278 c71 -27 139 -82 194 -155 122 -163 1137 -2243 1217
-2494 47 -147 34 -349 -31 -479 -69 -137 -209 -259 -347 -304 -104 -33 -247
-37 -353 -10 -98 24 -238 90 -327 152 -84 60 -249 207 -307 274 l-48 56 75 97
c214 279 359 561 413 803 24 106 24 315 0 393 -89 292 -339 476 -645 476 -53
0 -127 -7 -165 -15 -227 -48 -423 -231 -492 -460 -14 -45 -19 -93 -18 -195 0
-116 4 -149 27 -234 71 -256 197 -496 403 -768 41 -54 74 -101 74 -106 0 -21
-262 -261 -348 -320 -181 -124 -323 -174 -492 -173 -174 0 -300 52 -420 171
-190 189 -230 438 -114 719 97 233 538 1154 818 1706 352 695 386 752 490 821
84 55 155 75 256 70 54 -2 105 -11 140 -25z m-52 -1436 c128 -30 212 -96 269
-211 34 -69 37 -83 41 -182 7 -168 -40 -330 -157 -540 -95 -171 -254 -398
-271 -387 -18 11 -159 211 -221 314 -301 501 -256 906 114 1006 68 18 147 18
225 0z"/>
<path d="M6398 3235 c-58 -21 -102 -60 -134 -117 -38 -69 -41 -170 -7 -234 49
-92 158 -152 254 -141 170 20 278 207 205 358 -55 116 -200 177 -318 134z"/>
<path d="M7980 2140 l0 -1110 169 0 c195 0 201 2 201 76 0 51 7 54 40 19 35
-37 109 -82 176 -107 87 -32 278 -32 388 0 136 39 229 94 332 197 77 76 98
105 137 185 68 138 89 227 89 380 0 148 -21 242 -81 365 -99 200 -276 340
-500 396 -70 18 -105 21 -200 17 -150 -6 -221 -33 -343 -128 l-28 -22 0 421 0
421 -190 0 -190 0 0 -1110z m872 50 c173 -53 274 -187 285 -380 16 -252 -131
-428 -382 -460 -137 -17 -263 21 -350 105 l-45 44 0 279 0 279 50 47 c116 109
271 139 442 86z"/>
<path d="M11260 2140 l0 -1110 168 0 c193 0 202 3 202 78 0 23 4 42 8 42 5 0
21 -14 38 -31 36 -37 111 -80 184 -105 82 -28 268 -26 375 5 133 37 227 93
330 196 76 75 99 106 138 185 65 130 88 226 88 371 0 268 -101 484 -296 634
-134 103 -287 155 -454 155 -147 0 -238 -29 -348 -111 l-53 -40 0 421 0 420
-190 0 -190 0 0 -1110z m870 51 c124 -39 214 -121 262 -241 29 -74 32 -249 5
-327 -52 -150 -186 -251 -362 -273 -136 -17 -258 19 -349 103 l-46 43 0 282 0
281 41 39 c117 113 278 146 449 93z"/>
<path d="M5115 2545 c-297 -65 -512 -284 -581 -591 -13 -59 -15 -107 -11 -213
5 -155 23 -226 90 -356 58 -112 190 -244 302 -302 253 -131 550 -120 708 26
24 23 47 41 51 41 3 0 6 -20 6 -44 0 -74 6 -76 201 -76 l169 0 0 745 0 745
-175 0 c-195 0 -195 0 -195 -74 0 -20 -3 -36 -6 -36 -3 0 -24 16 -47 35 -50
43 -125 81 -198 100 -67 18 -233 18 -314 0z m406 -372 c36 -17 87 -51 113 -75
l46 -45 0 -275 0 -276 -45 -46 c-196 -195 -580 -131 -695 117 -87 184 -44 420
97 536 87 72 182 101 318 98 88 -2 108 -6 166 -34z"/>
<path d="M7535 2546 c-60 -20 -136 -60 -188 -100 -26 -20 -49 -36 -52 -36 -3
0 -5 19 -5 43 0 24 -5 48 -12 55 -8 8 -64 12 -185 12 l-173 0 0 -745 0 -745
190 0 190 0 0 524 0 525 33 31 c17 18 66 48 107 68 74 36 77 37 195 37 66 0
135 -4 153 -8 l32 -9 0 171 c0 123 -3 172 -12 177 -23 14 -231 14 -273 0z"/>
<path d="M10292 2544 c-75 -20 -151 -58 -199 -99 -23 -19 -44 -35 -47 -35 -3
0 -6 15 -6 33 0 18 -7 43 -16 55 -15 21 -21 22 -175 22 l-159 0 0 -745 0 -745
185 0 185 0 0 523 0 523 33 31 c79 76 180 115 291 115 134 -1 203 -34 248
-118 16 -29 32 -80 38 -120 5 -38 10 -268 10 -511 l0 -443 185 0 185 0 0 504
c0 565 -4 608 -65 732 -63 128 -208 238 -370 279 -75 19 -251 19 -323 -1z"/>
<path d="M6300 1775 l0 -745 185 0 185 0 0 745 0 745 -185 0 -185 0 0 -745z"/>
</g>
</svg>
