<?xml version="1.0" standalone="no"?>
<!DOCTYPE svg PUBLIC "-//W3C//DTD SVG 20010904//EN"
 "http://www.w3.org/TR/2001/REC-SVG-20010904/DTD/svg10.dtd">
<svg version="1.0" xmlns="http://www.w3.org/2000/svg"
 width="1280.000000pt" height="303.000000pt" viewBox="0 0 1280.000000 303.000000"
 preserveAspectRatio="xMidYMid meet">

<g transform="translate(0.000000,303.000000) scale(0.100000,-0.100000)"
fill="#000000" stroke="none">
<path d="M456 2978 c-11 -43 -6 -175 9 -226 11 -36 25 -59 48 -75 18 -13 236
-95 484 -183 249 -87 453 -161 453 -164 0 -7 -262 -100 -281 -100 -9 0 -265
90 -568 200 -304 110 -558 200 -566 200 -12 0 -15 -22 -15 -122 0 -108 3 -127
21 -158 12 -19 29 -40 38 -47 9 -6 156 -62 328 -125 172 -62 309 -116 305
-119 -11 -9 -265 -99 -279 -99 -7 0 -99 31 -204 70 -106 38 -196 67 -200 64
-15 -9 -11 -288 3 -306 15 -19 367 -148 402 -148 13 0 185 59 381 130 l357
130 144 -52 c79 -29 142 -53 141 -54 -1 -1 -228 -84 -504 -184 l-503 -183 0
-164 c0 -90 3 -162 8 -160 4 3 308 114 677 247 456 166 678 251 695 267 24 23
25 28 28 181 4 187 12 174 -130 223 -54 19 -98 36 -98 39 0 4 43 22 96 40 133
48 134 50 134 246 0 109 -3 154 -12 161 -14 11 -1360 493 -1376 493 -5 0 -12
-10 -16 -22z"/>
<path d="M2780 1520 l0 -740 628 0 627 0 83 165 c45 91 82 167 82 170 0 3
-223 5 -495 5 l-495 0 0 570 0 570 -215 0 -215 0 0 -740z"/>
<path d="M4720 1520 l-370 -740 229 0 228 0 64 135 64 135 415 0 416 0 61
-132 61 -133 226 -3 c124 -1 226 -1 226 2 0 8 -694 1373 -715 1407 -41 64 -65
69 -314 69 l-221 0 -370 -740z m763 124 l134 -289 -270 -3 c-149 -1 -272 -1
-274 1 -1 2 58 135 134 295 75 161 138 291 140 289 1 -2 63 -134 136 -293z"/>
<path d="M6280 2115 l0 -144 33 -5 c17 -3 147 -12 287 -21 140 -8 285 -18 323
-22 l67 -6 0 -568 0 -569 205 0 205 0 0 570 c0 449 3 570 13 570 33 0 646 41
675 46 l32 5 0 144 0 145 -920 0 -920 0 0 -145z"/>
<path d="M8427 1525 c-202 -404 -367 -737 -367 -740 0 -3 102 -5 228 -5 l227
0 62 133 62 132 417 0 417 0 61 -132 61 -133 228 0 228 0 -119 233 c-66 127
-228 446 -360 707 -133 262 -252 486 -264 497 -41 39 -72 43 -296 43 l-217 0
-368 -735z m756 133 c69 -150 129 -281 132 -290 7 -17 -10 -18 -265 -18 -228
0 -271 2 -268 14 6 26 262 566 268 566 4 0 63 -123 133 -272z"/>
<path d="M10436 1533 c-104 -400 -190 -733 -193 -740 -4 -10 36 -13 199 -13
l203 0 144 558 c79 306 147 560 150 564 4 4 65 -170 136 -388 117 -360 132
-398 162 -424 18 -16 47 -32 65 -35 18 -3 132 -5 252 -3 l220 3 155 427 c85
235 158 424 161 420 4 -4 71 -252 149 -551 79 -300 145 -550 148 -558 4 -10
48 -13 203 -13 l198 0 -169 671 c-93 370 -177 687 -185 706 -21 43 -65 80
-112 93 -21 5 -141 10 -272 10 l-235 0 -119 -343 c-173 -499 -178 -511 -186
-496 -5 8 -58 172 -120 364 -61 193 -123 370 -137 393 -44 77 -65 82 -369 82
l-261 0 -187 -727z"/>
<path d="M788 1017 l-338 -122 0 -164 c0 -151 1 -163 18 -156 9 3 154 56 322
117 168 61 317 116 332 124 36 19 48 65 48 195 0 102 -7 130 -34 129 -6 -1
-163 -56 -348 -123z"/>
<path d="M660 436 c-36 -13 -98 -36 -137 -51 l-73 -27 0 -163 0 -163 138 53
c173 66 172 65 172 227 0 121 -4 148 -24 148 -6 0 -40 -11 -76 -24z"/>
</g>
</svg>
