<?xml version="1.0" standalone="no"?>
<!DOCTYPE svg PUBLIC "-//W3C//DTD SVG 20010904//EN"
 "http://www.w3.org/TR/2001/REC-SVG-20010904/DTD/svg10.dtd">
<svg version="1.0" xmlns="http://www.w3.org/2000/svg"
 width="2560.000000pt" height="1038.000000pt" viewBox="0 0 2560.000000 1038.000000"
 preserveAspectRatio="xMidYMid meet">

<g transform="translate(0.000000,1038.000000) scale(0.100000,-0.100000)"
fill="#000000" stroke="none">
<path d="M6510 7614 c-1643 -61 -3004 -859 -3270 -1917 -48 -194 -63 -453 -40
-688 77 -756 570 -1392 1395 -1799 499 -247 1032 -382 1693 -431 211 -15 815
-6 1002 15 391 45 686 106 985 203 833 271 1432 740 1729 1353 152 314 203
571 193 968 -6 226 -22 327 -78 497 -287 861 -1331 1549 -2650 1745 -269 40
-694 64 -959 54z m675 -159 c774 -75 1485 -316 1994 -675 l74 -53 -27 -14
c-49 -26 -214 -82 -329 -113 -452 -120 -842 -83 -1307 122 -148 66 -306 118
-450 149 -138 30 -427 33 -562 6 -185 -37 -342 -104 -486 -207 -60 -43 -92
-60 -115 -60 -58 0 -200 -27 -357 -68 -218 -58 -269 -64 -398 -52 -106 10
-328 60 -542 121 -170 49 -470 150 -470 159 0 4 42 35 93 68 560 360 1267 576
2072 632 178 12 616 4 810 -15z m-45 -723 c135 -32 272 -79 419 -144 169 -75
306 -120 470 -155 118 -26 142 -27 376 -27 233 0 259 2 382 27 154 32 336 88
488 152 l108 44 78 -70 c235 -213 420 -479 517 -745 39 -105 67 -223 56 -234
-5 -4 -45 -15 -89 -25 -336 -73 -927 -264 -1277 -414 l-97 -41 -378 327
c-1028 892 -1127 963 -1335 963 -146 0 -280 -59 -474 -207 -269 -206 -309
-234 -372 -265 -58 -29 -77 -33 -168 -36 -73 -3 -117 0 -156 12 -59 17 -108
49 -108 70 0 15 258 293 399 431 210 204 391 304 636 350 116 21 410 14 525
-13z m-2927 -111 c254 -94 552 -183 792 -237 102 -23 145 -27 285 -28 l165 -1
177 48 c98 26 185 47 195 47 12 0 -7 -25 -58 -77 -184 -189 -306 -330 -319
-367 -47 -144 165 -268 434 -254 144 8 217 45 450 226 391 303 537 335 784
172 105 -69 433 -343 997 -831 334 -289 425 -373 443 -409 53 -106 5 -215
-115 -260 -66 -25 -126 -25 -178 -1 -22 10 -94 67 -160 127 -238 218 -409 366
-433 375 -16 6 -29 6 -38 -2 -32 -26 -14 -54 122 -189 244 -242 371 -384 384
-427 35 -117 -95 -253 -242 -253 -32 0 -73 6 -91 13 -18 8 -112 91 -210 186
-215 206 -237 223 -274 219 -60 -7 -44 -36 124 -225 242 -273 223 -247 223
-300 0 -95 -83 -157 -211 -158 l-75 0 -156 146 c-156 147 -209 191 -240 202
-19 7 -48 -16 -48 -38 0 -7 70 -91 156 -186 l156 -173 -30 -27 c-73 -66 -247
-59 -390 15 -31 16 -31 16 -18 54 68 191 -24 407 -209 494 -39 18 -89 32 -124
35 l-59 6 -4 76 c-8 140 -66 229 -186 288 -66 33 -87 38 -159 42 -45 1 -96 -2
-113 -7 -28 -10 -31 -9 -61 34 -92 134 -320 186 -477 108 l-62 -30 -32 33
c-18 19 -58 46 -88 61 -47 23 -68 27 -140 27 -92 0 -152 -20 -211 -69 l-29
-25 -52 36 c-188 126 -608 281 -1083 399 -121 30 -253 64 -293 76 l-74 21 7
36 c11 63 65 213 110 308 46 97 126 227 204 328 88 116 362 385 392 385 6 0
70 -22 142 -49z m-585 -1226 c476 -117 717 -196 967 -321 196 -97 189 -91 174
-148 -16 -66 -7 -171 22 -231 13 -27 44 -70 69 -95 64 -65 127 -93 221 -98
l77 -4 22 -59 c31 -85 111 -168 208 -216 67 -34 84 -38 153 -38 77 0 77 0 95
-33 27 -50 98 -110 172 -145 61 -29 76 -32 162 -32 l96 0 34 -54 c43 -65 97
-112 176 -148 53 -25 70 -28 164 -28 94 0 111 3 160 27 30 15 71 40 89 56 l35
29 70 -32 c202 -93 413 -85 521 18 l44 43 98 -1 c91 0 103 2 165 33 78 38 171
132 189 190 l11 38 53 -4 c96 -8 214 38 297 116 59 55 97 125 105 194 l6 50
37 -5 c147 -19 331 91 376 226 23 70 21 163 -5 223 -12 26 -20 48 -19 49 2 1
62 25 133 53 289 113 665 232 1020 322 l230 59 3 -112 c8 -299 -93 -593 -308
-900 -85 -121 -343 -379 -482 -482 -549 -407 -1269 -662 -2078 -739 -784 -75
-1605 35 -2273 303 -859 345 -1428 909 -1558 1543 -33 167 -39 418 -8 418 6 0
130 -29 277 -65z m1570 -366 c56 -28 98 -85 113 -157 l11 -57 17 25 c35 54 85
100 134 124 65 33 179 36 242 7 52 -23 101 -80 116 -133 16 -62 27 -88 37 -88
5 0 26 13 47 30 92 73 233 62 320 -25 65 -65 80 -146 49 -275 -20 -79 -14
-105 19 -96 114 33 130 35 179 26 128 -25 215 -120 226 -246 9 -111 -40 -205
-136 -262 -41 -24 -57 -27 -132 -27 -96 0 -136 14 -194 71 -46 45 -65 82 -80
158 -8 39 -18 62 -28 64 -8 2 -39 -14 -69 -34 -50 -33 -58 -36 -114 -32 -141
9 -235 101 -235 231 0 46 -14 47 -78 10 -63 -37 -137 -37 -208 0 -102 52 -157
152 -153 275 3 82 -3 87 -57 49 -42 -29 -52 -32 -123 -32 -66 0 -83 4 -114 25
-21 14 -50 43 -65 64 -24 35 -27 49 -27 117 0 70 3 81 30 120 60 85 177 114
273 68z"/>
<path d="M20610 7609 c-80 -14 -172 -60 -205 -103 -50 -66 -54 -92 -55 -349
l0 -238 -61 66 c-118 126 -273 174 -464 143 -299 -49 -488 -282 -535 -662 -15
-119 -9 -293 15 -396 33 -144 125 -305 217 -378 55 -43 145 -85 243 -114 70
-20 102 -23 260 -23 201 0 256 10 380 69 133 63 241 178 294 313 50 128 52
154 49 943 l-3 735 -40 2 c-22 0 -65 -3 -95 -8z m-441 -854 c122 -67 191 -225
191 -437 -1 -277 -130 -448 -340 -448 -130 0 -220 56 -275 172 -44 92 -58 183
-52 332 5 135 20 194 69 275 64 106 136 143 268 138 72 -2 94 -8 139 -32z"/>
<path d="M21461 7135 c-147 -27 -248 -76 -342 -162 -285 -265 -334 -787 -105
-1131 149 -225 418 -331 741 -292 283 34 456 156 570 404 58 124 79 229 79
391 -1 161 -16 247 -66 363 -96 221 -247 358 -455 413 -102 27 -317 34 -422
14z m325 -349 c137 -63 206 -210 206 -441 0 -273 -93 -425 -286 -465 -142 -29
-291 34 -361 154 -82 140 -87 457 -10 606 22 42 80 105 119 130 88 54 233 61
332 16z"/>
<path d="M11755 7124 c-170 -41 -320 -161 -393 -315 -70 -147 -72 -164 -72
-728 l0 -501 180 0 180 0 0 485 c0 459 1 487 20 538 21 56 72 113 130 143 27
14 57 19 125 19 130 0 188 -35 237 -140 23 -50 23 -53 26 -547 l3 -498 179 0
179 0 3 498 3 497 27 51 c49 94 136 144 249 144 115 0 201 -57 239 -157 19
-51 20 -79 20 -543 l0 -490 180 0 180 0 0 508 c0 470 -2 513 -20 589 -69 288
-293 463 -591 463 -48 0 -112 -5 -141 -11 -81 -17 -206 -81 -268 -138 -30 -28
-54 -51 -55 -51 0 0 -27 24 -58 54 -65 60 -152 107 -243 130 -77 20 -237 20
-319 0z"/>
<path d="M14235 7130 c-228 -32 -424 -166 -523 -358 -75 -144 -107 -331 -91
-545 18 -252 107 -426 278 -541 163 -109 270 -140 481 -140 181 0 249 13 380
77 134 65 277 222 315 345 l6 22 -208 0 -209 0 -34 -37 c-54 -57 -109 -76
-228 -81 -78 -3 -114 0 -154 13 -132 43 -208 143 -233 303 l-7 42 553 0 552 0
-6 143 c-6 176 -26 265 -84 386 -37 77 -59 108 -126 176 -93 94 -178 141 -312
175 -91 23 -260 33 -350 20z m280 -349 c97 -43 164 -133 180 -243 l7 -48 -341
0 c-198 0 -341 4 -341 9 0 30 44 141 71 180 68 99 144 133 284 128 66 -2 103
-9 140 -26z"/>
<path d="M16010 7134 c-14 -2 -58 -9 -98 -15 -312 -46 -532 -252 -597 -558
-12 -59 -15 -159 -15 -527 l0 -454 194 0 195 0 3 443 c4 428 5 444 27 510 28
87 83 145 167 178 49 19 79 23 172 23 l112 1 -2 200 -3 200 -65 1 c-36 1 -76
0 -90 -2z"/>
<path d="M16852 7130 c-170 -24 -284 -80 -402 -199 -130 -131 -188 -268 -211
-497 -20 -197 17 -415 93 -554 112 -202 275 -303 535 -331 342 -35 603 84 751
344 31 55 72 177 72 216 l0 31 -209 0 -209 0 -7 -37 c-19 -103 -82 -187 -161
-214 -61 -21 -190 -17 -245 8 -127 57 -189 195 -189 423 0 154 14 231 55 317
57 116 135 163 269 163 95 0 139 -14 188 -58 43 -38 88 -120 88 -159 l0 -23
215 0 215 0 -6 43 c-42 292 -192 451 -484 512 -90 19 -275 27 -358 15z"/>
<path d="M18335 7130 c-253 -46 -402 -180 -450 -406 -24 -115 -42 -104 175
-104 l190 0 6 28 c18 75 63 130 128 157 46 19 202 22 266 5 56 -15 99 -56 110
-104 26 -115 -37 -163 -251 -192 -375 -50 -517 -106 -610 -240 -88 -129 -103
-343 -33 -491 50 -105 162 -186 301 -219 47 -11 117 -16 228 -16 445 1 698
153 751 451 19 110 19 701 -1 794 -28 133 -85 204 -209 263 -122 58 -210 76
-391 80 -88 1 -182 -1 -210 -6z m423 -960 c-5 -123 -29 -191 -86 -242 -78 -68
-209 -106 -305 -88 -60 12 -92 33 -125 81 -21 30 -23 44 -20 110 6 133 54 171
285 219 151 32 229 56 240 73 12 18 15 -35 11 -153z"/>
<path d="M14920 4969 c-204 -25 -344 -102 -436 -240 -90 -137 -132 -282 -141
-495 -13 -306 50 -496 222 -670 119 -120 246 -174 410 -174 151 0 265 48 356
149 l49 55 0 -65 c-1 -146 -46 -267 -130 -342 -58 -52 -121 -77 -194 -77 -87
1 -214 65 -246 125 l-13 25 -209 0 c-160 0 -208 -3 -208 -12 1 -26 58 -146 98
-205 82 -120 195 -198 359 -245 67 -20 102 -23 248 -23 163 0 173 2 245 29
196 74 332 222 404 439 34 101 37 179 33 694 -4 548 -4 548 -61 677 -70 156
-236 289 -420 336 -93 23 -261 32 -366 19z m266 -359 c141 -69 221 -311 185
-560 -17 -111 -43 -178 -93 -234 -67 -77 -104 -91 -233 -91 -94 0 -116 3 -150
22 -113 61 -164 188 -165 410 0 213 52 363 151 434 71 50 220 60 305 19z"/>
<path d="M16505 4966 c-234 -46 -397 -176 -500 -400 -58 -124 -79 -229 -79
-391 0 -203 39 -344 136 -492 92 -141 203 -224 363 -272 137 -42 367 -44 516
-6 315 80 519 383 519 770 0 390 -211 701 -530 780 -90 23 -334 29 -425 11z
m329 -345 c124 -55 197 -185 212 -378 22 -298 -91 -503 -294 -531 -218 -30
-367 86 -408 317 -43 245 17 470 151 563 84 58 242 72 339 29z"/>
<path d="M11843 4955 c-265 -48 -443 -192 -521 -419 l-27 -81 -3 -778 -3 -779
134 4 c122 3 137 5 169 27 19 13 46 40 59 59 24 35 24 39 29 325 l5 289 33
-45 c84 -117 220 -177 406 -177 299 0 512 191 598 538 19 74 22 115 22 267 -1
153 -4 192 -23 260 -75 275 -249 456 -488 509 -87 19 -286 20 -390 1z m274
-340 c97 -29 174 -123 210 -256 21 -81 24 -282 4 -359 -32 -128 -110 -229
-204 -265 -63 -24 -194 -18 -253 13 -57 29 -129 113 -153 178 -49 130 -49 367
-1 496 63 169 220 246 397 193z"/>
<path d="M13431 4959 c-204 -19 -358 -99 -441 -229 -36 -56 -75 -170 -83 -242
l-5 -48 194 0 c188 0 194 1 194 20 0 30 27 91 53 118 56 61 167 84 293 63 39
-7 85 -21 103 -32 53 -32 76 -115 49 -173 -25 -56 -91 -80 -297 -106 -350 -46
-497 -113 -579 -267 -40 -76 -53 -137 -53 -249 0 -232 122 -380 354 -428 159
-33 443 -15 605 39 98 33 153 66 220 129 61 57 92 105 124 192 21 56 22 76 26
437 2 247 0 396 -8 430 -34 165 -127 252 -335 312 -74 21 -267 48 -315 44 -8
-1 -53 -5 -99 -10z m366 -926 c-3 -65 -12 -141 -21 -168 -22 -71 -74 -128
-153 -167 -55 -27 -79 -33 -152 -36 -76 -3 -91 -1 -131 20 -80 42 -113 153
-75 245 34 82 77 104 287 148 88 19 176 43 196 53 20 11 41 20 46 21 5 0 6
-50 3 -116z"/>
</g>
</svg>
