<?xml version="1.0" standalone="no"?>
<!DOCTYPE svg PUBLIC "-//W3C//DTD SVG 20010904//EN"
 "http://www.w3.org/TR/2001/REC-SVG-20010904/DTD/svg10.dtd">
<svg version="1.0" xmlns="http://www.w3.org/2000/svg"
 width="512.000000pt" height="105.000000pt" viewBox="0 0 512.000000 105.000000"
 preserveAspectRatio="xMidYMid meet">

<g transform="translate(0.000000,105.000000) scale(0.100000,-0.100000)"
fill="#000000" stroke="none">
<path d="M3676 1036 c-41 -7 -72 -17 -77 -26 -19 -34 -141 -574 -141 -626 -1
-87 51 -138 147 -146 l40 -3 16 60 15 59 -30 16 c-20 10 -32 24 -34 40 -2 20
123 569 143 628 2 6 1 11 -3 11 -4 -1 -38 -7 -76 -13z"/>
<path d="M3963 1042 c-18 -2 -33 -6 -33 -8 0 -3 -41 -176 -91 -386 -55 -228
-88 -383 -82 -389 16 -16 124 -31 177 -24 74 9 168 58 215 111 59 68 85 141
86 244 0 94 -16 135 -67 173 -41 31 -132 35 -192 9 -25 -12 -46 -19 -46 -17 0
1 15 67 34 146 19 79 34 144 33 144 -1 0 -17 -1 -34 -3z m169 -341 c30 -27 33
-34 36 -104 4 -65 0 -83 -24 -137 -50 -112 -163 -181 -272 -166 -25 3 -47 7
-48 9 -1 1 18 86 43 189 l44 187 52 25 c71 36 127 35 169 -3z"/>
<path d="M3382 1025 c-60 -27 -77 -116 -29 -150 63 -44 157 6 157 83 0 65 -61
97 -128 67z"/>
<path d="M1515 790 c-63 -13 -93 -27 -99 -47 -9 -34 -116 -483 -116 -490 0 -5
34 -8 75 -8 41 0 75 1 75 3 0 5 91 387 96 405 4 13 16 17 54 17 83 0 88 -37
35 -257 -19 -80 -35 -150 -35 -157 0 -7 24 -10 74 -8 l75 4 40 168 c23 92 41
182 41 199 0 37 22 51 79 51 73 0 77 -41 26 -256 -19 -80 -35 -150 -35 -155 0
-5 33 -9 74 -9 l74 0 39 158 c59 244 50 320 -47 370 -57 29 -153 27 -218 -6
l-44 -21 -30 22 c-24 18 -45 22 -111 24 -45 1 -100 -2 -122 -7z"/>
<path d="M2353 781 c-111 -51 -183 -165 -191 -304 -10 -168 79 -259 241 -244
146 13 258 142 274 315 10 114 -33 201 -119 236 -52 22 -153 20 -205 -3z m153
-132 c29 -32 26 -139 -5 -202 -41 -84 -128 -115 -170 -61 -44 56 -18 198 45
254 43 37 101 41 130 9z"/>
<path d="M2720 766 c0 -89 44 -395 70 -486 l10 -35 65 3 66 4 48 58 c92 111
233 346 269 449 l11 31 -80 0 -80 0 -11 -32 c-16 -47 -98 -203 -143 -273 l-39
-60 -7 35 c-5 19 -11 101 -15 183 l-7 147 -79 0 c-76 0 -78 -1 -78 -24z"/>
<path d="M3301 753 c-10 -39 -121 -502 -121 -506 0 -1 34 -2 75 -2 68 0 76 2
81 20 2 11 31 132 64 268 33 136 60 250 60 252 0 3 -34 5 -75 5 l-74 0 -10
-37z"/>
<path d="M4895 775 c-75 -27 -116 -99 -101 -179 8 -40 54 -84 126 -121 54 -27
70 -49 70 -92 0 -65 -83 -105 -173 -85 -29 6 -61 14 -73 17 -15 5 -23 0 -32
-20 -11 -25 -10 -27 25 -42 24 -10 67 -17 113 -17 62 0 83 4 119 24 54 30 81
78 81 142 0 59 -31 98 -111 138 -93 48 -112 94 -60 152 24 27 36 32 89 36 34
2 75 0 91 -6 29 -10 32 -9 46 18 l15 29 -37 10 c-53 15 -140 13 -188 -4z"/>
<path d="M4304 623 c-45 -187 -52 -264 -31 -315 22 -51 65 -72 149 -72 57 0
74 5 117 32 43 26 51 28 51 14 0 -33 16 -45 48 -37 28 6 30 9 21 31 -18 50 -9
136 36 314 25 99 45 182 45 185 0 4 -14 5 -32 3 l-32 -3 -41 -170 c-23 -93
-46 -188 -51 -210 -14 -59 -75 -99 -154 -100 -47 0 -64 4 -80 21 -37 36 -34
85 13 282 l44 182 -32 0 -33 0 -38 -157z"/>
<path d="M550 674 c-258 -149 -261 -157 -91 -281 63 -46 119 -83 123 -83 14 0
321 180 345 202 26 25 37 62 24 87 -10 18 -214 171 -229 171 -4 0 -81 -43
-172 -96z"/>
</g>
</svg>
