<?xml version="1.0" standalone="no"?>
<!DOCTYPE svg PUBLIC "-//W3C//DTD SVG 20010904//EN"
 "http://www.w3.org/TR/2001/REC-SVG-20010904/DTD/svg10.dtd">
<svg version="1.0" xmlns="http://www.w3.org/2000/svg"
 width="343.000000pt" height="147.000000pt" viewBox="0 0 343.000000 147.000000"
 preserveAspectRatio="xMidYMid meet">

<g transform="translate(0.000000,147.000000) scale(0.100000,-0.100000)"
fill="#000000" stroke="none">
<path d="M434 1434 c-62 -41 -107 -102 -144 -199 -21 -53 -24 -76 -24 -200 0
-123 4 -151 27 -227 72 -234 234 -489 460 -725 l80 -83 248 0 249 0 -93 48
c-414 216 -720 555 -842 932 -23 70 -28 104 -29 195 -1 127 17 181 82 248 43
44 39 47 -14 11z"/>
<path d="M216 1256 c-157 -201 -210 -344 -209 -571 1 -140 15 -233 59 -377
l27 -88 204 0 204 0 -26 33 c-91 111 -153 205 -201 301 -75 154 -97 241 -97
391 -1 138 15 209 69 317 19 37 33 68 31 68 -2 0 -29 -33 -61 -74z"/>
<path d="M1025 1300 c-3 -5 -13 -32 -21 -59 -13 -44 -18 -50 -64 -70 -28 -12
-50 -26 -50 -31 0 -13 4 -13 47 5 20 8 37 14 39 13 6 -7 -166 -542 -179 -555
-8 -8 -30 -18 -48 -22 -18 -3 -35 -13 -37 -20 -4 -11 3 -13 28 -8 18 4 77 7
131 7 59 0 99 4 99 10 0 6 -11 10 -24 10 -13 0 -34 8 -46 18 l-22 18 27 89
c15 50 29 91 30 93 2 2 16 -4 31 -14 18 -12 45 -18 79 -18 137 2 270 139 283
289 9 118 -38 160 -181 160 -73 0 -86 2 -81 15 3 8 8 30 11 48 5 29 3 32 -20
32 -14 0 -29 -4 -32 -10z m208 -140 c34 -38 36 -95 6 -175 -47 -125 -118 -195
-197 -195 -74 0 -99 44 -73 126 6 16 26 82 46 146 34 112 38 118 68 127 56 17
118 5 150 -29z"/>
<path d="M1448 1162 c-32 -33 -58 -64 -58 -70 0 -21 15 -12 39 24 26 37 56 58
70 50 12 -8 1 -51 -54 -228 -25 -80 -45 -149 -45 -153 0 -3 14 -5 31 -3 27 3
33 10 59 73 54 135 163 305 195 305 8 0 17 -9 20 -20 8 -24 47 -27 64 -6 16
19 10 66 -10 79 -43 27 -114 -31 -185 -153 -49 -84 -52 -83 -24 8 32 102 24
152 -24 152 -10 0 -45 -26 -78 -58z"/>
<path d="M1930 1199 c-131 -59 -203 -211 -154 -327 49 -119 170 -141 295 -54
68 47 108 112 116 184 16 161 -114 262 -257 197z m153 -20 c89 -70 24 -320
-99 -379 -52 -26 -91 -21 -125 16 -51 54 -31 222 37 311 54 71 135 94 187 52z"/>
<path d="M2365 1192 c-47 -33 -105 -97 -105 -115 0 -6 23 12 51 41 29 28 56
52 60 52 18 0 7 -57 -42 -217 -53 -171 -54 -192 -8 -174 17 6 29 24 42 62 58
167 217 366 262 329 8 -7 15 -20 15 -29 0 -8 -23 -91 -52 -184 -52 -170 -53
-192 -12 -181 14 4 30 28 52 82 78 190 199 338 258 315 23 -9 13 -64 -36 -197
-65 -175 -63 -227 7 -210 33 9 143 115 143 139 0 11 -20 -4 -54 -40 -50 -53
-76 -64 -76 -32 0 7 23 74 50 150 52 144 60 195 34 221 -50 51 -155 -14 -247
-154 -27 -41 -46 -66 -42 -55 40 114 45 171 17 205 -43 53 -136 -8 -230 -149
-23 -35 -42 -60 -42 -56 0 4 9 38 21 75 25 84 23 144 -6 148 -12 2 -39 -10
-60 -26z"/>
<path d="M3289 862 c-25 -11 -178 -126 -179 -134 0 -14 13 -8 115 45 74 38
100 57 100 71 0 22 -12 28 -36 18z"/>
<path d="M1585 640 c-10 -11 -33 -25 -51 -32 -37 -13 -45 -28 -15 -28 39 0 41
-17 39 -286 l-3 -258 -32 -10 c-58 -16 -35 -23 72 -23 58 0 105 3 105 6 0 4
-15 11 -32 16 l-33 10 -3 104 c-2 93 -1 103 14 97 128 -49 260 -13 318 87 124
211 -105 431 -306 294 l-28 -18 0 30 c0 36 -18 41 -45 11z m239 -34 c91 -38
128 -177 74 -281 -28 -53 -93 -95 -148 -95 -42 0 -96 24 -109 48 -6 12 -11 77
-11 150 l0 130 35 31 c29 25 45 31 81 31 24 0 60 -6 78 -14z"/>
<path d="M2230 644 c-96 -42 -140 -106 -140 -207 0 -87 43 -160 115 -197 91
-46 207 -28 274 44 34 36 22 41 -22 9 -67 -47 -159 -46 -223 2 -43 33 -76 103
-72 152 l3 38 165 3 c90 1 168 6 173 11 13 13 -11 81 -37 109 -11 13 -33 30
-48 38 -35 18 -143 17 -188 -2z m173 -34 c15 -17 27 -39 27 -49 0 -35 -27 -45
-146 -49 -106 -4 -114 -3 -114 14 0 35 40 85 83 105 57 27 113 19 150 -21z"/>
<path d="M2695 650 c-4 -6 -30 -22 -58 -37 l-52 -26 33 -9 33 -9 -3 -157 -3
-157 -32 -10 c-57 -16 -36 -23 72 -23 58 0 105 3 105 7 0 4 -15 11 -32 16
l-33 10 -3 137 c-3 151 7 189 52 210 19 8 29 6 53 -11 44 -33 87 -6 63 39 -23
43 -76 36 -132 -18 l-38 -36 0 42 c0 40 -11 54 -25 32z"/>
<path d="M2925 640 c3 -5 17 -10 31 -10 14 0 27 -6 29 -12 3 -7 6 -78 8 -158
2 -131 4 -149 25 -182 16 -25 37 -42 67 -54 55 -20 98 -14 156 26 24 16 47 26
51 24 4 -3 8 -19 8 -35 0 -28 1 -29 23 -15 12 8 41 20 65 27 48 14 55 29 13
29 -17 0 -31 6 -35 16 -3 9 -6 92 -6 185 l0 169 -65 0 c-37 0 -65 -4 -65 -10
0 -5 10 -10 23 -10 43 0 47 -16 47 -166 0 -127 -2 -144 -21 -167 -43 -55 -148
-58 -195 -6 -17 19 -19 40 -22 190 l-3 169 -70 0 c-44 0 -68 -4 -64 -10z"/>
</g>
</svg>
